<svg xmlns="http://www.w3.org/2000/svg" width="39" height="39" fill="none" viewBox="0 0 39 39">
    <g fill="#0385DB">
        <path d="M38.997 14.76a.914.914 0 0 0-.45-.79L20.041.184a.92.92 0 0 0-1.1 0L.364 14.025a.915.915 0 0 0 .55 1.647h37.163a.918.918 0 0 0 .919-.912zm-35.32-.917L19.493 2.06l15.814 11.783H3.678zM18.301 29.41c-1.103 0-2.034-.71-2.034-1.55a.92.92 0 0 0-1.838 0 3.657 3.657 0 0 0 3.872 3.38h.454v.623a.92.92 0 0 0 1.838 0v-.623h.088a3.656 3.656 0 0 0 3.87-3.382v-.13c0-.73-.384-1.804-2.21-2.762a.828.828 0 0 0-.093-.033l-.081-.03c-.029-.009-.046-.019-.07-.024l-.029-.006h-.013l-1.462-.3v-3.389h.088c1.103 0 2.036.707 2.036 1.543a.92.92 0 0 0 1.838 0 3.655 3.655 0 0 0-3.874-3.375h-.088v-.508a.92.92 0 0 0-1.838 0v.508h-.453a3.652 3.652 0 0 0-3.87 3.375v.133c0 1.058.728 1.975 2.163 2.725a.93.93 0 0 0 .242.085l.078.017c.018.005.035.013.054.016l1.786.364v3.342H18.3zm2.29-2.967l1.004.205c.77.425 1.118.846 1.118 1.082v.135a1.867 1.867 0 0 1-2.032 1.55h-.088v-2.972h-.001zm-3.254-2.535c-.785-.43-1.072-.818-1.072-1.043v-.138c0-.836.93-1.543 2.032-1.543h.458v3.01l-1.418-.286z"/>
        <path d="M.73 34.963v3.12a.918.918 0 0 0 .92.917h35.686a.917.917 0 0 0 .92-.917v-3.12a.917.917 0 0 0-.92-.916H34.32V21.222a.92.92 0 0 0-1.838 0v12.826h-3.12V21.222a.92.92 0 0 0-1.838 0v12.826H12.045V21.222a.92.92 0 0 0-1.838 0v12.826h-3.24V21.222a.92.92 0 0 0-1.838 0v12.826h-3.48a.918.918 0 0 0-.919.915zm1.838.917h33.848v1.289H2.568v-1.29zM11.372 18.644a.916.916 0 1 0 0-1.832h-5.72a.916.916 0 1 0 0 1.832h5.72zM33.707 18.644a.916.916 0 1 0 0-1.832h-5.724a.916.916 0 1 0 0 1.832h5.724zM18.953 5.63l-6.524 4.704a.916.916 0 0 0 .538 1.657h13.058a.916.916 0 0 0 .455-1.71l-6.45-4.65a.92.92 0 0 0-1.077-.002zm4.224 4.527h-7.372l3.685-2.656 3.687 2.656z"/>
    </g>
</svg>
