<svg xmlns="http://www.w3.org/2000/svg" width="34" height="38" fill="none" viewBox="0 0 34 38">
    <path fill="#1E2431" d="M32.426 28.247c-.776-.291-3.3-1.748-3.3-8.203v-3.398c0-8.009-4.466-10.825-8.35-11.698.06-.304.094-.613.1-.923a3.887 3.887 0 0 0-7.512-1.53 3.885 3.885 0 0 0-.254 1.53c.009.31.042.618.1.923-3.787.873-8.35 3.64-8.35 11.698v3.398c0 6.455-2.523 7.912-3.3 8.203A2.432 2.432 0 0 0 0 30.53v2.136a1.43 1.43 0 0 0 1.457 1.45h10.047a5.816 5.816 0 0 0 10.97 0h10.049a1.43 1.43 0 0 0 1.454-1.453V30.48a2.368 2.368 0 0 0-1.55-2.233zm-.388 2.233v1.699H1.942v-1.7a.37.37 0 0 1 .1-.242h29.947c0 .094.049.145.049.243zm-15.046 5.58a3.903 3.903 0 0 1-3.74-2.91h7.524a4.005 4.005 0 0 1-3.787 2.912l.003-.002zm0-33.977a1.947 1.947 0 0 1 1.751 2.781c-.126.261-.311.49-.54.668a14.577 14.577 0 0 0-2.427 0 1.883 1.883 0 0 1-.73-1.505 1.947 1.947 0 0 1 1.943-1.944h.003zm0 4.37c4.66 0 10.194 1.747 10.194 10.193v3.398c0 5.534 1.748 8.057 3.204 9.222H3.592c1.457-1.165 3.203-3.686 3.203-9.222v-3.398C6.796 8.2 12.33 6.451 16.99 6.451l.003.001z"/>
</svg>
