<svg xmlns="http://www.w3.org/2000/svg" width="35" height="28" fill="none" viewBox="0 0 35 28">
    <path fill="#0385DB" d="M12.486.001a.842.842 0 0 0-.65.367L9.403 4.542h-5.24A4.17 4.17 0 0 0 0 8.702v15.136A4.17 4.17 0 0 0 4.162 28H29.89a4.17 4.17 0 0 0 4.163-4.162V8.703A4.17 4.17 0 0 0 29.89 4.54h-5.237L22.221.367A.772.772 0 0 0 21.57 0h-9.085v.001zm.426 1.514h8.229l1.762 3.027H11.15l1.762-3.027zm-8.75 4.54H29.89a2.627 2.627 0 0 1 2.649 2.649v15.135a2.628 2.628 0 0 1-2.649 2.648H4.162a2.627 2.627 0 0 1-2.648-2.648V8.703a2.627 2.627 0 0 1 2.648-2.648zm12.864 1.513a8.702 8.702 0 1 0 8.702 8.702 8.714 8.714 0 0 0-8.702-8.702zM28 8.325a1.891 1.891 0 1 0 1.891 1.892A1.903 1.903 0 0 0 28 8.324v.001zm-10.973.761a7.189 7.189 0 1 1-7.189 7.19 7.178 7.178 0 0 1 7.19-7.19zM28 9.843a.378.378 0 1 1-.378.379.368.368 0 0 1 .378-.384v.005zm-10.973 1.51a4.919 4.919 0 1 0 4.92 4.918 4.93 4.93 0 0 0-4.92-4.919zm0 1.513a3.405 3.405 0 1 1-3.405 3.405 3.394 3.394 0 0 1 3.405-3.406v.001z"/>
</svg>
