<svg xmlns="http://www.w3.org/2000/svg" width="34" height="24" fill="none" viewBox="0 0 34 24">
    <path fill="#0385DB" d="M0 21.63V2.11A2.12 2.12 0 0 1 2.11 0h25.126a2.12 2.12 0 0 1 2.11 2.11v1.316a.623.623 0 0 1-1.245 0V2.111a.916.916 0 0 0-.9-.9H2.111a.916.916 0 0 0-.9.9v3.53h24.435a.623.623 0 0 1 0 1.246H1.21v14.776a.916.916 0 0 0 .9.9h10.906a.623.623 0 0 1 0 1.246H2.111A2.252 2.252 0 0 1 0 21.629zM2.976 3.01a.589.589 0 0 0 .416 1.004.583.583 0 0 0 .415-1.004.565.565 0 0 0-.83 0zm2.804 0a.589.589 0 1 0 .96.19.583.583 0 0 0-.128-.19.564.564 0 0 0-.833 0h.001zm2.838 0a.587.587 0 1 0 .83 0 .565.565 0 0 0-.83 0zm11.94 11.524l8.859-8.859a1.108 1.108 0 0 1 1.003-.346h.07c.247.029.491.087.726.173a4.589 4.589 0 0 1 2.56 2.526c.085.187.143.385.174.589 0 .069.034.138.034.207 0 .07.035.14 0 .208-.025.313-.16.608-.38.83a4939.973 4939.973 0 0 0-12.77 12.735 1.218 1.218 0 0 1-.657.346c-.935.208-1.87.381-2.769.589l-.693.139c-.069 0-.139.035-.208.035a.93.93 0 0 1-.9-1.177l.105-.553c.208-.972.416-1.973.623-2.942.052-.236.172-.453.345-.623a86.526 86.526 0 0 0 1.765-1.8l2.112-2.077zm8.548-6.852l2.457 2.457 1.174-1.177.035-.035a.127.127 0 0 0-.035-.104 2.147 2.147 0 0 0-.104-.345 3.366 3.366 0 0 0-1.902-1.873 1.29 1.29 0 0 0-.416-.07h-.035c-.31.281-.69.662-1.175 1.147h.001zm-7.683 7.683l-2.146 2.146-1.765 1.765a50.032 50.032 0 0 0-.623 2.942l-.035.172.312-.069c.935-.207 1.87-.38 2.769-.588.035 0 .035 0 .069-.035 2.146-2.18 7.406-7.406 10.763-10.764L28.31 8.48l-6.887 6.887zm.449-6.332H4.118a.623.623 0 0 0 0 1.247h17.754a.623.623 0 0 0 0-1.247zM4.118 13.6H17.68a.623.623 0 0 0 0-1.246H4.118a.619.619 0 0 0-.623.622.643.643 0 0 0 .623.624zm0 3.391h10.624a.623.623 0 0 0 0-1.246H4.118a.619.619 0 0 0-.435 1.058.643.643 0 0 0 .435.19v-.002zm0 3.358h8.996a.618.618 0 0 0 .623-.623.583.583 0 0 0-.589-.589H4.153a.619.619 0 0 0-.623.623.583.583 0 0 0 .588.59v-.001z"/>
</svg>
