<svg xmlns="http://www.w3.org/2000/svg" width="23" height="25" fill="none" viewBox="0 0 23 25">
    <path fill="#242A35" d="M18.516 3.086a.58.58 0 0 1-.29-.074 14.302 14.302 0 0 0-6.963-1.762 14.3 14.3 0 0 0-6.96 1.762.627.627 0 0 1-.6-1.1 15.905 15.905 0 0 1 15.096-.013.633.633 0 0 1-.29 1.187h.007zM.628 9.65a.623.623 0 0 1-.513-.983 12.923 12.923 0 0 1 4.688-4.093A14.429 14.429 0 0 1 17.69 4.56a12.973 12.973 0 0 1 4.688 4.065.628.628 0 0 1-1.025.725 11.736 11.736 0 0 0-4.238-3.678 13.172 13.172 0 0 0-11.75.013 11.859 11.859 0 0 0-4.25 3.7.545.545 0 0 1-.483.263H.628zm7.813 15.087a.588.588 0 0 1-.438-.188 12.64 12.64 0 0 1-2.516-3.3 11.096 11.096 0 0 1-1.312-5.425 6.922 6.922 0 0 1 7.075-6.738 6.923 6.923 0 0 1 7.075 6.738.626.626 0 0 1-1.25 0 5.67 5.67 0 0 0-5.825-5.487 5.67 5.67 0 0 0-5.825 5.487 9.793 9.793 0 0 0 1.161 4.812A11.833 11.833 0 0 0 8.9 23.662a.641.641 0 0 1 0 .887.686.686 0 0 1-.462.188h.004zm8.962-2.313a6.731 6.731 0 0 1-3.871-1.113 6.656 6.656 0 0 1-2.975-5.487.625.625 0 1 1 1.25 0 5.376 5.376 0 0 0 2.426 4.452c.942.614 2.05.924 3.175.887a8.27 8.27 0 0 0 1.3-.125.628.628 0 1 1 .212 1.238 8.542 8.542 0 0 1-1.512.15l-.005-.002zm-2.516 2.575a.739.739 0 0 1-.163-.025 9.754 9.754 0 0 1-4.65-2.625 9.121 9.121 0 0 1-2.71-6.524 3.774 3.774 0 0 1 3.85-3.678 3.774 3.774 0 0 1 3.85 3.678 2.606 2.606 0 0 0 5.2 0 8.817 8.817 0 0 0-9.061-8.539 9.126 9.126 0 0 0-8.263 5.038 8.04 8.04 0 0 0-.737 3.5c-.004 1.543.28 3.073.837 4.512a.61.61 0 0 1-.363.8.62.62 0 0 1-.8-.362 13.926 13.926 0 0 1-.907-4.95 9.387 9.387 0 0 1 .85-4.05 10.373 10.373 0 0 1 9.386-5.75 10.065 10.065 0 0 1 10.31 9.788 3.855 3.855 0 0 1-7.7 0 2.516 2.516 0 0 0-2.6-2.425 2.516 2.516 0 0 0-2.601 2.425 7.871 7.871 0 0 0 2.337 5.637 8.5 8.5 0 0 0 4.088 2.313.62.62 0 0 1 .437.763.61.61 0 0 1-.587.475h-.003z"/>
</svg>
