<svg xmlns="http://www.w3.org/2000/svg" width="30" height="30" fill="none" viewBox="0 0 30 30">
    <path fill="#fff" d="M16.037 30h-2.073a2.092 2.092 0 0 1-2.089-2.089v-2.494a1.189 1.189 0 0 0-2.031-.841l-1.763 1.763a2.092 2.092 0 0 1-2.955 0l-1.465-1.465a2.088 2.088 0 0 1 0-2.954l1.763-1.764a1.19 1.19 0 0 0-.841-2.03H2.09A2.092 2.092 0 0 1 0 16.036v-2.072a2.092 2.092 0 0 1 2.09-2.089h2.494a1.19 1.19 0 0 0 .841-2.031L3.661 8.081a2.089 2.089 0 0 1 0-2.955l1.465-1.465a2.092 2.092 0 0 1 2.955 0l1.763 1.764a1.19 1.19 0 0 0 2.031-.841V2.089A2.091 2.091 0 0 1 13.964 0h2.072a2.091 2.091 0 0 1 2.089 2.089v2.495a1.19 1.19 0 0 0 2.031.841l1.764-1.764a2.138 2.138 0 0 1 2.954 0l1.465 1.465a2.091 2.091 0 0 1 0 2.955l-1.763 1.763a1.19 1.19 0 0 0 .841 2.031h2.494A2.092 2.092 0 0 1 30 13.964v2.072a2.092 2.092 0 0 1-2.089 2.089h-2.494a1.19 1.19 0 0 0-.841 2.03l1.763 1.764a2.087 2.087 0 0 1 0 2.954l-1.465 1.465a2.139 2.139 0 0 1-2.955 0l-1.763-1.763a1.189 1.189 0 0 0-2.031.841v2.494A2.092 2.092 0 0 1 16.037 30zm-5.367-7.029c.326.001.648.066.949.192a2.4 2.4 0 0 1 1.506 2.254v2.494a.84.84 0 0 0 .839.839h2.072a.84.84 0 0 0 .839-.839v-2.494a2.44 2.44 0 0 1 4.164-1.725l1.761 1.763a.858.858 0 0 0 1.187 0l1.465-1.465a.838.838 0 0 0 0-1.187l-1.76-1.763a2.439 2.439 0 0 1 1.725-4.164h2.494a.84.84 0 0 0 .839-.839v-2.073a.84.84 0 0 0-.839-.839h-2.494a2.44 2.44 0 0 1-1.725-4.164L25.455 7.2a.841.841 0 0 0 0-1.187L23.99 4.545a.858.858 0 0 0-1.187 0L21.04 6.309a2.44 2.44 0 0 1-4.164-1.725V2.089a.84.84 0 0 0-.839-.839h-2.073a.84.84 0 0 0-.839.839v2.495a2.44 2.44 0 0 1-4.164 1.725L7.2 4.545a.841.841 0 0 0-1.187 0L4.545 6.01a.84.84 0 0 0 0 1.187L6.309 8.96a2.439 2.439 0 0 1-1.725 4.164H2.09a.84.84 0 0 0-.839.839v2.072a.84.84 0 0 0 .839.839h2.494a2.44 2.44 0 0 1 1.725 4.166L4.545 22.8a.837.837 0 0 0 0 1.187l1.465 1.468a.841.841 0 0 0 1.187 0l1.763-1.763a2.4 2.4 0 0 1 1.71-.721z"/>
    <path fill="#fff" d="M14.999 21.249a6.25 6.25 0 1 1 6.25-6.25 6.257 6.257 0 0 1-6.25 6.25zm0-11.25a5 5 0 1 0 5 5 5.006 5.006 0 0 0-5-5z"/>
</svg>
