<svg xmlns="http://www.w3.org/2000/svg" width="44" height="53" fill="none" viewBox="0 0 44 53">
    <path fill="#0385DB" d="M43.151 24.51a3.094 3.094 0 0 0-1.977-1.469v-4.57C41.174 8.294 32.482 0 21.804 0S2.437 8.294 2.437 18.47v4.572a3.093 3.093 0 0 0-1.973 1.507 4.142 4.142 0 0 0-.462 2.03v10.06c-.02.7.14 1.396.462 2.019a3.38 3.38 0 0 0 3.221 1.665h1.527a1.973 1.973 0 0 0 1.972 1.852h1.734a1.972 1.972 0 0 0 1.973-1.973V22.815a1.972 1.972 0 0 0-1.973-1.972H7.136a1.972 1.972 0 0 0-1.972 1.972v.08h-.796V18.47c0-9.102 7.802-16.499 17.397-16.499 9.595 0 17.397 7.397 17.397 16.499v4.423h-.798v-.079a1.972 1.972 0 0 0-1.973-1.972H34.74a1.972 1.972 0 0 0-1.973 1.972v17.456a1.972 1.972 0 0 0 1.754 1.912 6.403 6.403 0 0 1-1.596 3.359c-1.547 1.714-4.068 2.699-7.467 2.958v-.433a2.071 2.071 0 0 0-2.148-1.972h-4.227a2.07 2.07 0 0 0-2.148 1.972v2.959a2.071 2.071 0 0 0 2.148 1.972h4.266a2.07 2.07 0 0 0 2.148-1.972v-.551c3.989-.267 7.002-1.468 8.925-3.586a8.403 8.403 0 0 0 2.158-4.71 1.972 1.972 0 0 0 1.852-1.842h1.527a3.38 3.38 0 0 0 3.22-1.664 4.142 4.142 0 0 0 .463-2.02V26.578c.02-.72-.15-1.433-.49-2.068zM7.184 38.429V24.824c.01-.115.01-.23 0-.345v-1.624l1.655-.05v17.407H7.184V38.43zM5.212 24.776V38.35H3.688c-1.143 0-1.408-.482-1.497-.65a2.255 2.255 0 0 1-.217-1.074V26.578c-.022-.374.05-.746.207-1.085.09-.158.355-.65 1.497-.65l1.534-.067zM23.568 49.5v1.35a.267.267 0 0 1-.217.138h-4.269a1.08 1.08 0 0 1-.158 0v-2.876a.266.266 0 0 1 .198-.06h4.438l.008 1.448zm12.865-24.677V40.21h-1.67V22.815h1.694l-.024 2.01zm4.984 12.895c-.089.158-.355.65-1.497.65h-1.517V24.864h1.517c1.143 0 1.408.482 1.497.65.16.334.234.703.217 1.074v10.059c.017.37-.058.739-.217 1.073v-.001z"/>
</svg>
