<svg xmlns="http://www.w3.org/2000/svg" width="43" height="22" fill="none" viewBox="0 0 43 22">
    <path fill="#0385DB" d="M36.742 9.035a2.799 2.799 0 1 0-3.958 3.958 2.799 2.799 0 0 0 3.958-3.958zm-2.983 2.983a1.378 1.378 0 1 1 1.95 0 1.337 1.337 0 0 1-1.95 0zm8.358-1.743A11.192 11.192 0 0 0 31.87.027a11.007 11.007 0 0 0-10.634 6.086l-1.978-1.978-2.275 2.274-2.274-2.274-2.274 2.274-2.275-2.274-2.274 2.274-2.244-2.244L0 9.805l5.316 5.317 15.685.027a11.048 11.048 0 0 0 10.218 6.85 10.854 10.854 0 0 0 8.007-3.452 11.146 11.146 0 0 0 2.891-8.272zM31.044 20.581a9.612 9.612 0 0 1-9.099-6.494l-.148-.443h-.118l-15.74-.09-3.75-3.75 3.426-3.427L7.889 8.65l2.274-2.273 2.274 2.274 2.275-2.274 2.273 2.272 2.273-2.273 2.038 2.038.502-.03v-.059l.148-.442a9.615 9.615 0 0 1 18.697 2.394 9.473 9.473 0 0 1-2.57 7.23 9.663 9.663 0 0 1-7.031 3.074h.002z"/>
</svg>
