<svg xmlns="http://www.w3.org/2000/svg" width="79" height="16" fill="none" viewBox="0 0 79 16">
    <path fill="#fff" d="M10.141 15.478v-2.916H3.208V.322H0v15.156h10.141zm4.91-7.576a4.895 4.895 0 0 1 1.398-3.54 4.559 4.559 0 0 1 3.401-1.44 4.56 4.56 0 0 1 3.407 1.443 4.895 4.895 0 0 1 1.397 3.537 4.877 4.877 0 0 1-1.397 3.536 4.567 4.567 0 0 1-3.407 1.44 4.568 4.568 0 0 1-3.404-1.437 4.877 4.877 0 0 1-1.395-3.539zm-3.315 0a7.565 7.565 0 0 0 2.352 5.584 7.892 7.892 0 0 0 5.762 2.317 7.894 7.894 0 0 0 5.768-2.317 7.565 7.565 0 0 0 2.352-5.584 7.546 7.546 0 0 0-2.352-5.58A7.9 7.9 0 0 0 19.85.002a7.9 7.9 0 0 0-5.765 2.315 7.547 7.547 0 0 0-2.349 5.585zm27.118-.644v2.378h2.666v2.059l-.323.274a3.605 3.605 0 0 1-1.157.608 5.277 5.277 0 0 1-1.825.3 4.72 4.72 0 0 1-3.503-1.426 4.854 4.854 0 0 1-1.407-3.555 4.854 4.854 0 0 1 1.407-3.556 4.721 4.721 0 0 1 3.507-1.418c.506 0 1.01.08 1.49.238.413.125.808.299 1.179.518.299.186.576.404.829.65.177.162.342.337.493.523l.172.238 2.034-2.061-.24-.317a4.982 4.982 0 0 0-.756-.75c-.384-.322-.788-.618-1.21-.89a6.64 6.64 0 0 0-1.746-.755A7.927 7.927 0 0 0 38.22.002a7.91 7.91 0 0 0-5.77 2.315 7.547 7.547 0 0 0-2.353 5.585 7.565 7.565 0 0 0 2.351 5.584 7.898 7.898 0 0 0 5.772 2.317 8.441 8.441 0 0 0 2.309-.317 8.608 8.608 0 0 0 1.814-.7c.46-.258.898-.555 1.308-.888.283-.218.552-.454.803-.708.122-.138.21-.242.266-.312V7.256l-5.865.002zm11.843.644a4.895 4.895 0 0 1 1.398-3.54 4.56 4.56 0 0 1 3.406-1.44 4.56 4.56 0 0 1 3.404 1.443A4.895 4.895 0 0 1 60.3 7.902a4.877 4.877 0 0 1-1.398 3.536 4.567 4.567 0 0 1-3.401 1.44 4.568 4.568 0 0 1-3.404-1.437 4.878 4.878 0 0 1-1.4-3.539zm-3.315 0a7.565 7.565 0 0 0 2.352 5.584 7.894 7.894 0 0 0 5.767 2.317 7.894 7.894 0 0 0 5.763-2.317 7.563 7.563 0 0 0 2.352-5.584 7.546 7.546 0 0 0-2.352-5.58 7.9 7.9 0 0 0-5.763-2.32 7.9 7.9 0 0 0-5.765 2.315 7.547 7.547 0 0 0-2.354 5.585z"/>
    <path fill="#0385DB" d="M71.745 9.962l3.629 5.517H79l-5.234-7.906L78.574.326h-3.628l-3.2 4.869-3.201-4.87h-3.64l4.812 7.248-5.234 7.905h3.634l3.628-5.516z"/>
</svg>
