<svg xmlns="http://www.w3.org/2000/svg" width="30" height="30" fill="none" viewBox="0 0 30 30">
    <g fill="#fff">
        <path d="M26.25 0H3.75A3.754 3.754 0 0 0 0 3.75v16.5A3.754 3.754 0 0 0 3.75 24h10.5v4.5h-6a.75.75 0 1 0 0 1.5h13.5a.75.75 0 1 0 0-1.5h-6V24h10.5A3.755 3.755 0 0 0 30 20.25V3.75A3.754 3.754 0 0 0 26.25 0zm2.25 20.25a2.253 2.253 0 0 1-2.25 2.25H3.75a2.253 2.253 0 0 1-2.25-2.25V3.75A2.253 2.253 0 0 1 3.75 1.5h22.5a2.253 2.253 0 0 1 2.25 2.25v16.5z"/>
        <path d="M18.581 19.161a.825.825 0 0 1-.872-.871v-7.838a.822.822 0 0 1 .872-.871h1.742a.823.823 0 0 1 .871.871v7.839a.823.823 0 0 1-.871.871l-1.742-.001zm-5.226 0a.824.824 0 0 1-.871-.871V6.097a.823.823 0 0 1 .874-.871h1.739a.823.823 0 0 1 .871.871v12.194a.822.822 0 0 1-.871.871l-1.742-.001zm-5.226 0a.822.822 0 0 1-.871-.87v-3.484a.823.823 0 0 1 .871-.872h1.742a.824.824 0 0 1 .872.872v3.483a.823.823 0 0 1-.872.871H8.129z"/>
    </g>
</svg>
