<svg xmlns="http://www.w3.org/2000/svg" width="39" height="40" fill="none" viewBox="0 0 39 40">
    <g fill="#0385DB">
        <path d="M.928 35.1h18.525a.9.9 0 0 0 0-1.797h-17.6v-2.697c0-2.562 5.525-4.45 7.428-4.944 2.09-.494 4.179-1.798 4.179-3.596v-2.202c.903.414 1.885.629 2.878.628h.237a7.176 7.176 0 0 0 2.414-.449v2.022a2.622 2.622 0 0 0 .836 1.888.961.961 0 0 0 .696.27c.235-.006.462-.085.65-.225a.89.89 0 0 0 .047-1.26.998.998 0 0 1-.372-.674v-3.1a6.466 6.466 0 0 0 2.322-4.629 2.535 2.535 0 0 0 1.532-2.34v-1.122a2.642 2.642 0 0 0-1.44-2.292c.446-1.563.541-3.206.28-4.81C22.563.086 15.836-.274 12.911.131a3.697 3.697 0 0 0-2.6 1.348 3.719 3.719 0 0 0-.464.99 2.596 2.596 0 0 0-1.394.988c-1.207 1.304-.418 3.64.65 5.573a2.55 2.55 0 0 0-.835 1.843v1.124a2.535 2.535 0 0 0 1.532 2.34 6.22 6.22 0 0 0 1.802 4.18v3.548c0 .675-1.254 1.528-2.74 1.888A23.05 23.05 0 0 0 4.59 25.48C1.531 26.92 0 28.628 0 30.606v3.596a.916.916 0 0 0 .928.899zm9.894-22.293a.75.75 0 0 1-.696-.765V10.92a.793.793 0 0 1 .511-.72.824.824 0 0 0 .557-.539.878.878 0 0 0-.098-.764c-1.393-2.248-1.67-3.821-1.3-4.225a.473.473 0 0 0 .14-.18c.047-.044.185-.27.743-.27a.938.938 0 0 0 .743-.314.858.858 0 0 0 .185-.72.79.79 0 0 1 .186-.585 1.957 1.957 0 0 1 1.346-.585 10.726 10.726 0 0 1 1.765-.09c2.74 0 6.314.675 6.778 2.427a10.237 10.237 0 0 1-.464 4.765.766.766 0 0 0 .14.764.891.891 0 0 0 .696.36.791.791 0 0 1 .742.765v1.124a.786.786 0 0 1-.696.764.931.931 0 0 0-.835.9v.449a4.414 4.414 0 0 1-1.671 3.46.735.735 0 0 0-.465.36 4.984 4.984 0 0 1-2.554.764h-.232a4.85 4.85 0 0 1-4.74-4.674v-.45a.89.89 0 0 0-.78-.898zM39 30.052a1.748 1.748 0 0 0-1.22-1.59l-1.084-.364c0-.045-.045-.09-.045-.136l.497-1.045a1.885 1.885 0 0 0-.27-1.999 9.62 9.62 0 0 0-.683-.682 1.7 1.7 0 0 0-1.22-.455 1.48 1.48 0 0 0-.768.181l-1.04.5c-.044 0-.09-.045-.135-.045l-.362-1.09a1.805 1.805 0 0 0-1.577-1.225h-.998a1.741 1.741 0 0 0-1.581 1.227l-.407 1.045c-.045 0-.09.046-.135.046l-1.084-.5a1.48 1.48 0 0 0-.769-.182 1.775 1.775 0 0 0-1.22.455c-.226.227-.497.454-.682.682a1.8 1.8 0 0 0-.271 1.999l.497 1.045c0 .046-.045.09-.045.137l-1.084.408a1.813 1.813 0 0 0-1.214 1.588v1a1.748 1.748 0 0 0 1.22 1.59l1.084.364c0 .045.045.09.045.136l-.497 1.045a1.886 1.886 0 0 0 .27 2c.217.238.445.466.683.682a1.7 1.7 0 0 0 1.22.454c.268.01.533-.053.768-.181l1.04-.5c.045 0 .09.045.135.045l.362 1.09a1.806 1.806 0 0 0 1.581 1.227h.995a1.741 1.741 0 0 0 1.581-1.227l.362-1.09c.045 0 .09-.046.136-.046l1.039.5c.235.13.5.192.768.182.45.008.886-.154 1.22-.454a9.63 9.63 0 0 0 .683-.683 1.8 1.8 0 0 0 .27-1.999l-.497-1.045c0-.046.045-.09.045-.136l1.084-.364a1.812 1.812 0 0 0 1.22-1.59v-.909l.083-.09zm-1.808.91l-1.898.682a4.41 4.41 0 0 1-.633 1.5l.86 1.861-.543.545-1.852-.862a5.475 5.475 0 0 1-1.491.635l-.683 1.908h-.808l-.682-1.95a4.36 4.36 0 0 1-1.491-.635l-1.853.862-.542-.545.86-1.862a5.537 5.537 0 0 1-.634-1.5l-1.943-.682v-.822l1.943-.682a4.41 4.41 0 0 1 .633-1.5l-.859-1.862.542-.545 1.853.863a5.477 5.477 0 0 1 1.49-.636l.683-1.95h.813l.683 1.95a4.363 4.363 0 0 1 1.49.636l1.853-.863.542.545-.859 1.862c.284.466.497.971.633 1.5l1.943.682v.409c-.004.182-.05.319-.05.455z"/>
        <path d="M30.297 27.295a3.201 3.201 0 1 0 3.258 3.201 3.21 3.21 0 0 0-3.258-3.2zm0 4.573a1.372 1.372 0 1 1 1.396-1.372 1.36 1.36 0 0 1-1.396 1.372z"/>
    </g>
</svg>
