<svg xmlns="http://www.w3.org/2000/svg" width="28" height="29" fill="none" viewBox="0 0 28 29">
    <g fill="#0385DB">
        <path d="M2.405 16.663h3.243v1.44h-.985v-.472H2.405a1.428 1.428 0 0 0-1.31.86c-.072.168-.109.35-.11.533v7.16a1.377 1.377 0 0 0 .418.984c.267.262.627.41 1.002.41h1.718v-1.316a.845.845 0 0 1 .256-.604.878.878 0 0 1 .617-.251h18.007a.878.878 0 0 1 .806.527.845.845 0 0 1 .067.328v1.314h1.719a1.428 1.428 0 0 0 1.31-.86c.072-.169.109-.35.11-.534v-7.158a1.377 1.377 0 0 0-.418-.983 1.428 1.428 0 0 0-1.002-.41h-2.258v.472h-.99v-1.44h3.248a2.42 2.42 0 0 1 1.699.693A2.334 2.334 0 0 1 28 19.024v7.16a2.334 2.334 0 0 1-.706 1.668 2.42 2.42 0 0 1-1.7.692h-2.59v-.855h-.105c0 .006-.007.007-.007 0v-1.316H5.11v1.313c0 .007 0 .006-.007 0h-.103v.856H2.405a2.42 2.42 0 0 1-1.699-.693A2.334 2.334 0 0 1 0 26.184v-7.16a2.333 2.333 0 0 1 .706-1.668 2.42 2.42 0 0 1 1.7-.693zM23.003 27.69v-.104a.309.309 0 0 1-.075.03l.075.074zm-.075-.072a.285.285 0 0 1-.03.072h.104l-.074-.072zm-17.824.072a.286.286 0 0 1-.03-.072L5 27.689h.104zm-.03-.074a.302.302 0 0 1-.075-.03v.104l.075-.074z"/>
        <path d="M4.998 25.405h18.005a.878.878 0 0 1 .806.529.848.848 0 0 1 .067.328v1.424a.848.848 0 0 1-.256.606.878.878 0 0 1-.617.252H4.998a.878.878 0 0 1-.806-.53.847.847 0 0 1-.067-.328v-1.424a.847.847 0 0 1 .256-.606.878.878 0 0 1 .617-.251zm17.893.966H5.11v1.205H22.89V26.37zM16.532.147l6.634 5.617a.477.477 0 0 1-.116.807.496.496 0 0 1-.205.043h-4.39a2.992 2.992 0 0 1-1.93-.683 2.26 2.26 0 0 1-.84-1.726V.488A.488.488 0 0 1 16.179 0a.496.496 0 0 1 .354.147zm4.99 5.498l-4.847-4.098V4.2a1.314 1.314 0 0 0 .498.997c.362.295.818.453 1.286.447h3.062z"/>
        <path d="M7.432.004h8.781l.321.119L21.823 4.6l1.343 1.138.172.146V19.07H4.663V2.415a2.26 2.26 0 0 1 .84-1.726 2.992 2.992 0 0 1 1.93-.683V.004zm8.599.968H7.432a1.991 1.991 0 0 0-1.286.444 1.314 1.314 0 0 0-.498.996V18.1h16.706V6.323l-1.171-.994L16.03.972z"/>
        <path d="M7.615 3.112h6.776v.965H7.615v-.965zM7.615 6.083h6.776v.968H7.615v-.968zM7.615 9.054h12.769v.968H7.615v-.968zM7.615 12.025h12.769v.966H7.615v-.966zM7.615 14.995h12.769v.968H7.615v-.968zM24.4 19.753a.64.64 0 0 1 .196-.457.667.667 0 0 1 1.074.209.638.638 0 0 1-.142.705.667.667 0 0 1-1.076-.209.64.64 0 0 1-.051-.248zM24.4 22.602a.64.64 0 0 1 .196-.457.667.667 0 0 1 1.074.209.638.638 0 0 1-.142.705.667.667 0 0 1-1.076-.209.64.64 0 0 1-.051-.248zM24.4 25.453a.64.64 0 0 1 .196-.457.667.667 0 0 1 1.074.209.638.638 0 0 1-.142.705.667.667 0 0 1-1.076-.209.64.64 0 0 1-.051-.248z"/>
    </g>
</svg>
