<svg xmlns="http://www.w3.org/2000/svg" width="22" height="22" fill="none" viewBox="0 0 22 22">
    <path fill="#0385DB" d="M11 13.198a6.6 6.6 0 1 1 6.599-6.6 6.618 6.618 0 0 1-6.599 6.6zM11 2.2a4.4 4.4 0 1 0 4.4 4.399 4.412 4.412 0 0 0-4.4-4.4z"/>
    <path fill="#0385DB" d="M20.898 21.996a1.04 1.04 0 0 1-1.1-1.1 7.652 7.652 0 0 0-7.698-7.698H9.9a7.651 7.651 0 0 0-7.698 7.698 1.04 1.04 0 0 1-1.1 1.1 1.04 1.04 0 0 1-1.1-1.1A9.857 9.857 0 0 1 9.9 10.998h2.2a9.857 9.857 0 0 1 9.898 9.898 1.038 1.038 0 0 1-1.1 1.1z"/>
</svg>
