<svg xmlns="http://www.w3.org/2000/svg" width="30" height="29" fill="none" viewBox="0 0 30 29">
    <g fill="#0385DB">
        <path d="M0 19.988v7.22A1.79 1.79 0 0 0 1.794 29h11.26a518.467 518.467 0 0 1-.645-9.037H0v.025zm12.146-5.715H1.794A1.79 1.79 0 0 0 0 16.066v1.482h12.292a80.102 80.102 0 0 1-.146-3.275zM29.216 2.033A2.172 2.172 0 0 0 27.04 0H16.38a2.19 2.19 0 0 0-2.175 2.033 65.252 65.252 0 0 0-.24 10.113c.099 3.681.886 14.652.886 14.652a2.33 2.33 0 0 0 2.318 2.2h9.038a2.314 2.314 0 0 0 2.318-2.2s.787-10.998.885-14.652c.212-3.371.147-6.753-.195-10.113zM16.334 15.54a.71.71 0 0 1 .717-.741h1.69l.143 2.726h-2.458l-.092-1.985zm.167 3.252h2.458l.167 3.037h-2.458l-.167-3.037zm1.506 7.268a1.19 1.19 0 0 1-1.195-1.147l-.099-1.818h2.459l.143 2.965h-1.308zm5.045 0h-2.458l-.144-2.965h2.753l-.151 2.965zm.215-4.228h-2.893l-.167-3.037h3.204l-.144 3.037zm.24-4.304h-3.344l-.144-2.725h3.639l-.152 2.725zm3.108 7.412a1.19 1.19 0 0 1-1.196 1.148h-1.076l.144-2.965h2.22l-.092 1.817zm.143-3.108h-2.223l.167-3.037h2.223l-.167 3.037zm.24-4.304h-2.224l.143-2.725H26.4a.71.71 0 0 1 .717.741l-.12 1.984zm.263-6.195a.754.754 0 0 1-.765.765h-9.563a.755.755 0 0 1-.766-.765V4.304a.755.755 0 0 1 .766-.765h9.563a.755.755 0 0 1 .765.765v7.03z"/>
    </g>
</svg>
